<svg id="bc4ae00a-e6cf-4145-803e-44852d318de0" data-name="Шар 1" xmlns="http://www.w3.org/2000/svg" viewBox="0 0 496.34 478.9"><path d="M388.19,473.18c16.88-13.47,32.64-28,45.64-45.4C471.07,378,486.46,322,477,260.63,464.14,177.17,417.55,118.5,340.24,85.11A205.61,205.61,0,0,0,208.55,73.62c-91,21.85-150.16,78.7-170.84,169.5-20,88.24,7.66,163.4,76.55,222.76a16.84,16.84,0,0,1,4.31,5.46A229.48,229.48,0,0,1,56,412.6c-35.68-49.15-52.8-104-47.33-164.55C18.25,143.53,73.33,71.68,170.31,32.81A222,222,0,0,1,303.05,22.4C405.9,45.28,472.88,108.27,496.69,210.46c22.62,97-7.89,179.86-82.76,245.76-7.64,6.75-16.64,12-25,17.91Z" transform="translate(-7.66 -16.74)" style="fill:#5821c0"/><path d="M227.56,124.79c0-2.27.09-4,0-5.66-.49-7.68-.51-7.7,7.52-7.7,14.56,0,29.12.19,43.69,0,5.09,0,6.79,1.33,5.2,6.37a37.07,37.07,0,0,0-.58,7c7.61,0,14.75.38,21.84,0,14.77-.93,21.56,8.41,20.88,20.86-.27,5.23.17,10.51-.23,15.71-.68,9.21-6.15,15.15-15.35,16-5.66.53-7.53,2.68-7.44,8.36.29,19.22.22,38.44,0,57.65,0,6,2.09,9.45,7.66,12.1a124.9,124.9,0,0,1,70.91,122.12c-4.76,67.59-61.9,119.74-129.07,117.92C190.28,493.92,137.45,446,130,384.26a125.72,125.72,0,0,1,70.31-128.65c5.77-2.8,8-6.32,7.92-12.51-.22-19.4-.28-38.83,0-58.25,0-5.17-2.15-6.66-6.7-7.28-10.6-1.4-15.82-7-16.24-17.68a186.31,186.31,0,0,1,.24-19.2A16,16,0,0,1,201.75,125C210.08,124.56,218.37,124.79,227.56,124.79Zm1.82,13H214.27c-3.64,0-7.5-.56-11,.26a7.48,7.48,0,0,0-4.74,4.93c-.71,4.55,0,9.29-.29,13.93-.31,5.26,1.31,7.75,7.1,8,8.32.31,15.26,6.7,15.37,14.69.36,23.09.51,46.21-.1,69.27-.18,6.3-2.23,12.89-9.55,16.07-48,20.83-74.8,68.89-67.45,120.66,7.88,55.45,57.76,98,113.59,96.92a113.59,113.59,0,0,0,110.39-97,112.24,112.24,0,0,0-65.8-119.9c-4.86-2.14-8.29-5-9.51-10.08A57,57,0,0,1,290.18,243c-.2-19.6-.15-39.21,0-58.81,0-12.29,5.35-18.21,17.48-19.48,4-.4,5.46-2.4,5.46-6,0-4.84-.24-9.7,0-14.56s-2-6.57-6.65-6.42c-6.4.2-12.83.4-19.2,0-4.3-.28-5.63,1-6,5.29-1.26,14.46-3,28.86-4.61,43.55H234.79c-1.82-16.17-3.65-32.1-5.37-48.74Z" transform="translate(-7.66 -16.74)" style="fill:#43424f"/><path d="M332.83,321.65c5.46,2.61,10.43,4.7,15.09,7.41a10.63,10.63,0,0,1,4,5.32c21.61,57.69-16.38,123.11-77.46,133.43C221,476.91,172,445.2,158.4,392.63a99.29,99.29,0,0,1,2.53-57.34c2.39-7.14,3.17-7.54,11.07-5.46,29.87,8.08,59.34,6.77,88.82-2.62,11.94-3.81,24.46-5.87,36.82-8.21a8.69,8.69,0,0,1,6.88,2.73c13.33,15.36,18.81,33.16,15.61,53.39-1.13,7.15,1,12,6.39,13.91,4.84,1.71,10.61-1.37,13.19-7.78,4.52-11.19,4.28-22.86,1.44-34.31C339,338.69,335.8,330.63,332.83,321.65Z" transform="translate(-7.66 -16.74)" style="fill:#5820c0"/></svg>